<?xml version="1.0" encoding="utf-8"?>
<!-- Generator: Adobe Illustrator 27.5.0, SVG Export Plug-In . SVG Version: 6.00 Build 0)  -->
<svg version="1.1" xmlns="http://www.w3.org/2000/svg" xmlns:xlink="http://www.w3.org/1999/xlink" x="0px" y="0px"
	 viewBox="0 0 500 500" style="enable-background:new 0 0 500 500;" xml:space="preserve">
<g id="BACKGROUND">
	<rect style="fill:#FFFFFF;" width="500" height="500"/>
</g>
<g id="OBJECTS">
	<g>
		<text transform="matrix(0.9709 0 -0.2394 0.9709 219.2367 252.9921)"><tspan x="0" y="0" style="fill:#141414;stroke:#FFFFFF;stroke-width:2;stroke-miterlimit:10; font-family:'Bungee-Regular'; font-size:59.1143px; letter-spacing:-4.12;">track</tspan><tspan x="2.07" y="48.421" style="fill:#F3630F;stroke:#FFFFFF;stroke-width:2;stroke-miterlimit:10; font-family:'Bungee-Regular'; font-size:59.1143px; letter-spacing:-4.12;"> field</tspan></text>
		
			<text transform="matrix(0.9709 0 -0.2394 0.9709 397.2208 278.4019)" style="fill:#141414;stroke:#FFFFFF;stroke-width:2;stroke-miterlimit:10; font-family:'Bungee-Regular'; font-size:59.1143px; letter-spacing:-4.12;">&amp;</text>
		
			<text transform="matrix(1 0 0 1 219.185 321.9404)" style="fill:#141414; font-family:'Raleway-SemiBoldItalic'; font-size:15.8235px; letter-spacing:3;">TAGLINE GOES HERE</text>
		<g>
			<path style="fill:#141414;" d="M210.706,226.791c-2.07-1.467-4.366-2.508-6.27-1.889c-1.035,0.337-2.172,0.714-3.337,1.106
				c2.128,0.528,6.268,1.732,7.408,3.357c1.555,2.215-0.222,12.889-1.999,18.569c-1.777,5.68-3.348,8.372-6.696,16
				c-2.124,4.839-9.292,22.967-9.292,22.967s2.94-13.394,4.617-23.306c0.652-3.854,0.204-6.566,0.678-8.68
				c1.692-7.552,5.84-8.884,5.84-8.884c-2.674,5.503-1.709,8.078-1.709,8.078c4.655-6.258,6.613-16.536,6.613-16.536
				s2.252-7.258-0.901-7.915c-3.153-0.658-15.139,0-15.139,0l5.908-4.755c0,0-0.824-1.754-8.236,1.337
				c-7.412,3.091-6.583,2.02-6.583,2.02s-0.033-0.502-0.031-1.253c0.007-2.029,0.281-5.865,2.178-6.509
				c0.199-0.068,0.411-0.109,0.648-0.1c1.429,0.053,3.852,0.209,6.253,0.377c2.205,0.155,4.383,0.32,5.766,0.427
				c0.613,0.048,1.079,0.084,1.307,0.102h0c-0.423-0.034-0.856-0.069-1.302-0.104c-2.15-1.024-6.369-2.455-10.032-2.86
				c-1.809-0.2-3.484-0.154-4.704,0.322c-0.777,0.303-1.753,1.056-2.806,2.049c-2.31,2.179-4.998,5.526-6.832,7.933
				c-0.133,0.171-0.256,0.339-0.386,0.509c-0.532,0.705-0.967,1.296-1.277,1.722c-0.191,0.263-0.338,0.467-0.421,0.583
				c-0.057,0.079-0.088,0.123-0.088,0.123l0.002-0.001c-2.655,3.77-4.299,6.716-4.123,5.836c0.067-0.333,0.159-0.762,0.266-1.249
				c0.61-2.763,1.951-8.862,1.951-8.862c-14.683,1.412-18.217,5.505-18.217,5.505c3.953-5.459,14.286-10.553,14.286-10.553
				c-10.838,0.95-32.259,14.035-32.259,14.035c5.804-7.176,17.2-13.085,17.2-13.085c-7.781,0.972-19.019,6.428-19.019,6.428
				s9.559-8.225,21.119-9.115c10.044-0.773,18.273-2.684,20.262-3.173c-1.451-2.042-4.762-7.594-4.496-15.495
				c0.411-12.188,1.211-16.535,3.787-27.604c0,0-0.955,8.738,0.242,14.509c1.197,5.771,1.618,13.324,1.618,13.324
				s1.863-1.112,2.197-6.731c0.195-3.293,1.432-10.313,1.432-10.313s0.424,7.387,1.609,12.096c0.565,2.245,0.846,5.995,0.734,9.379
				c0.468-0.74,0.896-1.402,1.255-1.922c2.692-3.903,8.614-12.343,11.036-15.862c4.717-6.782,9.319-20.646,9.457-28.288
				c-0.044-0.025-0.083-0.046-0.125-0.07c0.008-0.094,0.018-0.194,0.025-0.282c-0.027,0.068-0.062,0.148-0.101,0.239
				c-0.585,1.362-2.518,5.197-6.521,7.546c-1.175,0.689-2.523,1.252-4.072,1.581c-0.896,0.191-1.613,0.304-2.284,0.3
				c1.531,2.646,1.782,7.058,1.782,7.058c-0.214-2.223-2.863-5.686-4.366-7.773c-2.189-1.216-3.793-3.823-3.718-7.59
				c0.049-2.456,0.519-5.063,1.015-7.505c0.229-1.13,0.463-2.224,0.665-3.251c0.348-1.772,0.595-3.342,0.544-4.55
				c-1.822-0.557-3.307-0.77-5.51-1.715c-0.006-0.003-0.017,0.004-0.023,0.005c0,0-0.545,9.769-8.317,16.153
				c-6.68,5.487-17.145,9.514-25.419,9.835c-0.008,0.018-0.016,0.037-0.025,0.055c5.098,0.284,14.173,0.88,20.277,1.803
				c0,0-11.172,2.941-20.288,7.729c0,0,9.539-1.197,14.974,0c0,0-13.504,3.261-18.798,11.97l-4.495,14.763
				c0,0,3.107,0.798,14.321-2.394c0,0-9.824,9.501-28.835,16.643c-0.001,0.001-0.002,0.003-0.004,0.004l-0.004-0.001
				c-1.434,1.632-4.852,5.535-6.063,13.745c-1.211,8.21-0.269,13.324-0.404,14.67c0,0,4.867,7.849,13.068,9.575
				c0,0-4.847,6.57-11.331,9.762c0,0,6.925-0.543,11.331-3.281c0,0-2.911,6.54-14.725,14.416c0,0,7.333-0.407,15.446-4.492
				c0,0-13.494,11.245-27.914,15.519c-1.438,2.088-3.21,4.4-5.391,6.818c-6.191,6.864-9.421,10.094-14.132,21.399
				c-2.182,5.236-4.128,9.505-5.768,12.729c0,0,0.002,0.001,0.002,0.001c-0.005,0.007-0.009,0.014-0.013,0.021
				c-1.264,2.485-2.345,4.344-3.202,5.516c-2.057,4.01-3.02,7.257-3.202,10.359c0,0-2.388-4.004-1.608-9.639
				c-0.861,0.033-1.808,0.177-2.78,0.527c-3.365,1.211-7.545,2.893-9.16,4.239c-1.208,1.006,0.149,4.236,1.283,8.481
				c0.383,1.433,1.885,3.067,2.191,4.561c0.344,1.682-0.428,4.394-0.053,6.486c0.945,5.272,3.075,10.355,3.846,12.667
				c1.077,3.23,4.602,5.896,8.371,7.781c3.374,1.687,5.703,0.883,6.155,0.695c-4.386-2.732-11.098-7.356-12.544-10.884
				c-3.61-8.805-3.396-20.208-3.396-20.208s3.661,16.428,8.69,23.074c3.271,4.322,6.523,5.127,8.405,5.165
				c0.145-0.966,0.122-2.131-0.312-3.431c-0.139-0.417-0.275-0.831-0.41-1.243c-0.548-1.015-1.084-1.978-1.472-2.607
				c-1.203-1.948-4.154-3.781-4.154-3.781c1.64-1.031,3.498-2.521,3.498-2.521c-1.421-2.177-4.045-3.781-4.045-3.781
				c3.17-0.115,4.482,0.688,4.482,0.688l0.328-1.49c-3.717-2.521-8.855-3.323-8.855-3.323c2.274-1.249,5.841-1.368,11.009-0.033
				c0.815-2.175,1.529-4.194,1.637-5.326c0.269-2.826,3.634-9.421,6.056-15.074c2.423-5.653,20.323-26.379,23.957-31.359
				c3.634-4.98,10.229-8.883,13.459-13.728c0.283-0.424,0.595-0.895,0.92-1.386c-2.409-0.518-7.198-1.947-7.198-1.947
				c1.223,0.139,8.477,0,8.478,0c1.913-0.012,3.503-0.062,4.508-0.161c0.598-0.059,0.995-0.135,1.115-0.234
				c0.643-0.526,0.767-1.451,0.999-3.07c0.375-2.612,1.036-7.042,4.636-14.601c2.449-4.245,6.124-8.657,9.306-14.04
				c-4.266-0.233-11.505-1.487-18.445-6.715c0,0,10.596,6.12,19.321,5.207l0,0c3.403-0.013,6.874-0.408,10.275-1.276
				c13.19-3.365,31.763-10.498,31.763-10.498c3.206-1.715,12.778-7.394,12.778-7.394s-8.06,7.404-12.123,10.564
				c-1.598,1.243-3.247,3.08-4.664,4.851c-0.404,1.271-0.717,2.609-0.837,3.957c-0.538,6.056-0.135,15.747-0.404,21.13
				c-0.269,5.384-4.576,13.055-4.576,13.055s-6.346,1.054-9.678,2.894c-4.269,2.357-4.403,5.764-4.134,6.975
				c0.149,0.672,1.321,1.685,4.112,6.307c0.565,0.936,3.224,3.47,3.85,4.443c1.851,2.876,2.656,7.158,4.759,9.619
				c6.326,7.402,13.964,13.872,15.925,13.277c0.467-0.142,1.346-1.116,2.023-2.327c-4.312-3.615-10.098-8.693-11.713-11.194
				c-4.397-6.81-6.235-16.436-6.235-16.436s5.779,13.214,10.914,17.974c3.017,2.796,5.989,5.355,7.935,6.998
				c0.001-0.012,0.005-0.025,0.006-0.037c0.067-1.068-0.397-3.228-1.126-5.577c-0.931-1.952-1.815-3.662-2.289-4.19
				c-1.291-1.44-3.942-2.495-3.942-2.495c1.112-1.138,2.315-2.698,2.315-2.698c-1.504-1.597-3.855-2.513-3.855-2.513
				c2.48-0.62,3.656-0.161,3.656-0.161l-0.004-1.307c-3.375-1.507-7.568-1.334-7.568-1.334c1.429-1.294,3.868-1.977,7.527-1.891
				c-0.059-1.382-0.174-2.588-0.502-3.407c-1.077-2.692-1.077-2.692-1.077-2.692s5.653-14.132,9.018-23.419
				c3.365-9.287,7.537-16.151,9.017-24.091c1.481-7.941,3.499-14.401,4.576-17.631c1.077-3.23,0.942-5.787-1.75-9.287
				C210.777,226.882,210.744,226.84,210.706,226.791z"/>
			<path style="fill:#141414;" d="M89.82,183.739c1.48,0.818,0.808,0.528,2.423,2.547c1.615,2.019,1.615-0.538,3.499,0.942
				c1.884,1.48,2.557,0.269,2.557,0.269s1.211,1.75,2.288,1.077c1.077-0.673,1.481-2.288,3.096-4.835
				c1.615-2.547,0.808-2.836,0.135-4.99c-0.673-2.153-1.346-4.711-1.346-4.711s-0.134-0.942,6.057-4.854
				c6.191-3.912,7.806-5.644,14.132-8.201c6.326-2.557,12.247-7.133,12.247-7.133s8.883,5.249,13.324,7.537
				c0.138,0.071,0.267,0.137,0.403,0.207c-1.361,1.935-3.054,4.93-4.7,8.51c3.311-0.362,8.409-1.371,14.297-4.113
				c14.451-6.729,17.082-17.699,17.547-22.085c-0.211-0.067-0.435-0.132-0.671-0.195c-0.287-0.072-0.574-0.144-0.864-0.209
				c-0.219-0.049-0.443-0.096-0.676-0.142c-0.11-0.022-0.22-0.041-0.331-0.062c-1.357-0.254-2.905-0.465-4.503-0.638
				c-2.356-0.234-4.527-0.344-6.128-0.505c-3.262-0.2-5.754-0.261-5.754-0.261c5.267,1.856,8.889,5.179,8.889,5.179
				c-11.132-4.276-24.84-2.982-24.84-2.982c12.013,2.926,17.976,7.539,17.976,7.539c-21.436-6.02-36.423-3.494-36.423-3.494
				c3.855-0.207,6.555,3.848,6.555,3.848s-13.75,5.31-19.709,8.977c-5.958,3.667-8.733,10.391-8.733,10.391
				c-0.573-1.338-2.137-4.772-2.96-6.572c-0.172,0.213-0.353,0.439-0.519,0.643c-0.131,0.161-0.268,0.314-0.404,0.468
				c-0.447,2.689-1.074,7.063-0.781,9.01c0.716,4.758,3.997,9.424,3.997,9.424s-7.592-7.833-8.829-12.339c0,0-0.374,4.96,0.78,8.846
				c-0.378-0.276-0.742-0.566-1.074-0.878c-1.305-1.228-2.418-3.014-3.214-4.774c-1.114,2.405-1.09,3.797-0.167,5.183
				C88.475,181.98,88.34,182.922,89.82,183.739z"/>
			<path style="fill:#141414;" d="M175.67,143.848c0.068,0.037,0.11,0.059,0.11,0.059c0.001-0.01,0.002-0.018,0.003-0.028
				C175.745,143.869,175.708,143.858,175.67,143.848z"/>
			<path style="fill:#141414;" d="M270.897,155.359c-0.311-1.54-2.368-1.43-2.368-1.43s0.087-1.753-1.245-2.201
				c-1.332-0.448-2.389,1.277-2.389,1.277s-0.632-1.437-1.892-1.753c-1.261-0.316-1.977,0.579-1.977,0.579s-0.883-1.78-2.135-1.76
				c-1.251,0.021-2.139,1.041-2.139,1.041s-1.494,0.014-2.622-0.373c-1.128-0.387-1.506,1.078-2.984,3.165
				c0.502,3.019,3.87,7.778,3.87,7.778s-4.01-0.735-6.302-3.646c0.115,0.531-0.005,2.589,0.617,3.978
				c0.179,0.399,0.416,0.743,0.661,1.057l0.001-0.001c0,0,0.006,0.012,0.007,0.014c0.263,0.337,0.534,0.64,0.753,0.934
				c0.609,0.622,1.674,1.54,3.505,2.729c2.292,1.488,4.545,1.91,4.545,1.91s-2.889,0.9-7.408,0.254c0,0-0.144,2.132,1.363,3.084
				c0,0-1.777,1.101-6.337-0.783c-2.499,1.913-6.768,4.597-10.28,6.205c-2.644,1.21-4.77,2.584-6.171,3.593
				c1.241,2.788,0.664,5.184,0.664,5.184c1.305,1.015,1.885,4.641,1.885,4.641c-3.046-1.74-8.366-2.466-8.366-2.466
				c2.076-1.45,4.595-1.74,4.595-1.74c-1.159-3.766-4.585-7.027-4.594-7.035c-2.669-1.638-6.242-3.734-9.336-5.71
				c0.519,3.479-0.439,6.611-0.439,6.611c-1.046-4.798-2.866-8.459-4.604-11.086c-1.441-1.72-2.954-3.669-4.489-5.158
				c-1.053-1.021-2.1-1.85-3.03-2.508c-2.333,10.101-5.453,18.074-8.276,23.906c4.115,1.958,9.163,4.052,13.045,5.863
				c8.182,3.816,19.037,6.886,21.385,7.065c2.348,0.178,4.645-0.503,6.795-2.609c2.151-2.105,14.84-13.734,19.59-19.275
				c4.75-5.542,8.237-6.041,10.161-10.038c1.924-3.997,3.608-7.423,3.608-7.423S271.208,156.899,270.897,155.359z"/>
			<path style="fill:#141414;" d="M184.705,146.717c-0.003,0.038-0.01,0.082-0.014,0.122
				C184.719,146.776,184.732,146.728,184.705,146.717z"/>
			<path style="fill:#141414;" d="M200.167,158.731c0.027-0.069,0.055-0.138,0.083-0.207
				C200.185,158.612,200.149,158.686,200.167,158.731z"/>
			<polygon style="fill:#141414;" points="200.173,158.734 200.167,158.731 200.167,158.744 			"/>
			<path style="fill:#141414;" d="M182.849,161.65c0.312,2.123,0.743,3.633,1.327,4.674c-0.08-0.389-0.083-0.789-0.015-1.171
				c0.1-0.561,0.279-1.514,0.481-2.583c0.508-2.691,1.174-6.146,1.174-6.146c0.447,2.564,1.37,9.138,1.37,9.138
				s3.014-4.44,5.242-8.069c0.032-0.052,0.065-0.105,0.097-0.157c2.237-3.656,6.371-6.52,6.371-6.52s-5.029,7.828-2.904,7.046
				c1.533-0.565,3.178-1.035,5.285-1.534c0.299-0.524,0.613-0.98,0.939-1.299c0.925-0.906,4.8-0.837,6.18-0.607
				c1.38,0.23,4.473,0.852,4.013-0.236c-0.151-0.356-1.132-2.435-4.501-2.852c-0.333-0.041-0.828-0.101-1.393-0.208
				c-2.882-0.612-4.595-2.234-4.811-4.284c-0.09-0.854-0.324-3.524,1.186-3.885c2.12-0.507,2.461-0.666,2.028-3.55
				c-0.433-2.883-1.253-6.538-0.631-7.615c0.622-1.077,4.218-2.765,4.742-3.886c0.967-2.068-1.514-4.503-3.341-5.41
				c-1.827-0.908,3.573-1.022,7.719-0.097c4.146,0.925,8.257,6.179,8.257,6.179c0.061-0.429,1.225-0.592,1.444-2.807
				c0.133-1.343-0.601-2.558-0.601-2.558l1.463,0.011c0,0-3.754-5.703-10.118-7.991c-4.629-1.665-8.959-2.053-12.396,0.357
				c-0.868-0.275-1.981-0.458-3.388-0.384c-4.251,0.225-9.264,3.291-10.579,7.818c-1.314,4.527-0.243,8.713,0.73,10.076
				c0.532,0.745,1.073,1.638,1.459,2.302c0.156,0.554,0.333,1.105,0.54,1.668c0.528,1.437,0.994,3.648,1.304,5.531
				c1.636-3.274-1.124-7.09-0.801-9.289c0.401-2.723,1.179-5.512,1.179-5.512s0.064,3.44,0.322,5.014
				c0.199,1.215,1.405,3.638,2.01,5.467c0.427,1.29,0.495,2.393,0.379,3.334c-0.104,0.848-0.357,1.566-0.647,2.156
				c-0.241,0.491-1.1,1.339-2.049,2.186c-1.228,1.096-5.349,3.217-7.834,3.746c-0.285,1.078-0.614,2.312-0.889,3.678
				C182.706,155.782,182.398,158.584,182.849,161.65z M196.705,127.412c0.844-0.532,2.19,1.265,2.19,1.265
				c-0.45,0.12-1.115-0.31-1.786-0.104c-0.487,0.149-1.027,0.868-1.246,1.247c-0.521,0.903-0.004,3.881-0.004,3.881
				c-0.526-0.931-0.866-1.573-0.976-3.206C194.774,128.863,196.108,127.789,196.705,127.412z"/>
			<path style="fill:#141414;" d="M209.67,132.414c-1.205,0.066-1.431,0.521-1.431,0.521s0.816,1.065,1.316,1.562
				c0.5,0.497,1.668,1.348,1.938,1.534c1.072,0.742,2.206,0.546,2.675,0.338c0.469-0.208,1.059-1.418,1.203-1.446
				c0.144-0.027,1.121-0.486,1.588-0.736c0,0-1.25-1.939-1.959-2.468c-0.709-0.529-4.013-1.006-4.746-1.118
				c-0.732-0.113-2.097,0.509-2.097,0.509c0.107,0.058,1.427,0.31,1.788,0.481c0.361,0.171,0.85,0.897,0.85,0.897
				S210.319,132.378,209.67,132.414z"/>
			<path style="fill:#141414;" d="M213.18,142.074c-0.496-0.193-1.561,0.033-1.382,0.416c0.096,0.206,0.732,1.139,2.008,1.369
				c1.101,0.198,2.846-0.274,3.136-0.453C217.409,143.116,213.676,142.267,213.18,142.074z"/>
			<path style="fill:#141414;" d="M215.498,145.276c-0.443-0.682-1.479-0.286-1.922-0.4c-1.413-0.365-1.939-0.99-3.33-1.036
				c-1.391-0.047-1.542,0.369-1.738,0.512c0,0,0.435,1.147,1.435,2.037c1.286,1.144,3.387,1.75,3.387,1.75
				S215.857,145.828,215.498,145.276z"/>
			<path style="fill:#141414;" d="M209.407,148.027c-0.358,0.157,0.524,1.131,0.866,1.618c0.342,0.488,1.353,2.085,2.146,2.34
				c0.002-0.78,0.191-1.516,0.17-1.757c-0.047-0.536,0.708-0.608,1.089-1.114c0.03-0.039,0.049-0.083,0.071-0.125
				c-0.433-0.294-2.001-0.56-2.393-0.637C210.397,148.163,209.764,147.87,209.407,148.027z"/>
			<path style="fill:#141414;" d="M218.784,134.794c-0.216,0.537-2.079,1.759-1.006,3.102c-0.005-0.163-0.006-0.297-0.002-0.374
				c0.035-0.576,0.675-0.276,1.157-0.646c0.641,0.158,1.207-0.137,1.207-0.137c-0.322-0.207-0.769-0.518-0.658-0.791
				c0.278-0.556,0.629-1.06,1.018-1.506C220.108,134.051,218.904,134.497,218.784,134.794z"/>
		</g>
	</g>
</g>
</svg>
